<svg width="43" height="40" viewBox="0 0 43 40" fill="none" xmlns="http://www.w3.org/2000/svg">
<g clip-path="url(#clip0_985_2308)">
<path d="M7.49582 33.5412C7.49582 33.5412 7.60107 33.6588 7.65954 33.7176C15.2254 41.3294 27.4922 41.3294 35.0581 33.7176C42.624 26.1059 42.624 13.7647 35.0581 6.15292C27.5039 -1.44708 15.2488 -1.45885 7.68293 6.12939L21.2126 19.7412L7.48413 33.5529L7.49582 33.5412Z" fill="#FFBF00"/>
<path d="M36.847 8.91754C38.8935 9.96459 40.4721 11.4705 41.5947 13.4352C42.7056 15.3999 43.2669 17.6822 43.2669 20.294C43.2669 22.9058 42.7056 25.1764 41.5947 27.1058C40.4838 29.0352 38.8935 30.5058 36.847 31.5293C34.8006 32.5528 32.4151 33.0705 29.6904 33.0705H21.3411V7.34106H29.6904C32.4151 7.34106 34.8006 7.87048 36.847 8.91754ZM36.5664 27.1764C38.1567 25.5528 38.9519 23.2587 38.9519 20.294C38.9519 17.3293 38.1567 14.9764 36.5664 13.3058C34.976 11.6234 32.684 10.7881 29.6904 10.7881H25.5391V29.6234H29.6904C32.684 29.6234 34.976 28.8117 36.5664 27.1764Z" fill="white"/>
<path d="M2.51429 23.1411H0.514648V25.1529H2.51429V23.1411Z" fill="white"/>
<path d="M6.68896 18.1528H3.48486V21.3764H6.68896V18.1528Z" fill="white"/>
<path d="M7.91666 25.7529V29.4587H3.87061V25.3881H7.51907L9.96307 23.0117V17.8352H15.4592V23.3529H10.384L7.91666 25.7529Z" fill="white"/>
</g>
<defs>
<clipPath id="clip0_985_2308">
<rect width="43" height="40" fill="white"/>
</clipPath>
</defs>
</svg>
