<svg width="83" height="39" viewBox="0 0 83 39" fill="none" xmlns="http://www.w3.org/2000/svg">
<path d="M42.9765 25.2229C43.3098 24.6035 43.7694 24.1103 44.3555 23.7662C44.9415 23.4221 45.5735 23.25 46.286 23.25C46.918 23.25 47.4695 23.3762 47.9522 23.6171C48.4233 23.8694 48.8025 24.1791 49.0898 24.5462V23.3762H50.779V31.4285H49.0898V30.2356C48.8025 30.6141 48.4233 30.9353 47.9292 31.1876C47.4466 31.44 46.8835 31.5662 46.263 31.5662C45.5735 31.5662 44.93 31.3941 44.3555 31.0271C43.7809 30.6715 43.3213 30.1782 42.988 29.5359C42.6548 28.8935 42.4824 28.1709 42.4824 27.3679C42.4824 26.565 42.6548 25.8424 42.988 25.2229M48.7451 25.9571C48.5152 25.5441 48.2165 25.2344 47.8487 25.0165C47.481 24.7985 47.0788 24.6953 46.6537 24.6953C46.2285 24.6953 45.8263 24.7985 45.4586 25.005C45.0909 25.2115 44.7921 25.5212 44.5623 25.9226C44.3325 26.3241 44.2176 26.8059 44.2176 27.3565C44.2176 27.9071 44.3325 28.4003 44.5623 28.8132C44.7921 29.2376 45.0909 29.5474 45.4701 29.7653C45.8493 29.9832 46.24 30.0979 46.6652 30.0979C47.0903 30.0979 47.4925 29.9947 47.8602 29.7768C48.228 29.5588 48.5267 29.2491 48.7565 28.8362C48.9864 28.4232 49.1013 27.9415 49.1013 27.3794C49.1013 26.8174 48.9864 26.3471 48.7565 25.9341" fill="white"/>
<path d="M54.8929 24.8223V29.2844C54.8929 29.5826 54.9619 29.8005 55.0998 29.9382C55.2377 30.0644 55.479 30.1332 55.8237 30.1332H56.8464V31.5211H55.525C54.778 31.5211 54.192 31.3491 53.8013 30.9935C53.3991 30.6379 53.2038 30.0758 53.2038 29.2844V24.8223H52.25V23.4688H53.2038V21.4614H54.8929V23.4688H56.8579V24.8223H54.8929Z" fill="white"/>
<path d="M58.3403 25.304C58.6735 24.6846 59.1332 24.1913 59.7192 23.8472C60.3053 23.5031 60.9373 23.3311 61.6497 23.3311C62.2817 23.3311 62.8333 23.4572 63.3159 23.6981C63.7871 23.9505 64.1663 24.2602 64.4536 24.6272V23.4572H66.1427V31.5096H64.4536V30.3166C64.1663 30.6952 63.7871 31.0163 63.293 31.2687C62.8103 31.5211 62.2473 31.6472 61.6268 31.6472C60.9373 31.6472 60.2938 31.4752 59.7192 31.1081C59.1447 30.7525 58.685 30.2593 58.3518 29.6169C58.0186 28.9746 57.8462 28.2519 57.8462 27.449C57.8462 26.6461 58.0186 25.9234 58.3518 25.304M64.1088 26.0381C63.879 25.6252 63.5802 25.3155 63.2125 25.0975C62.8448 24.8796 62.4426 24.7763 62.0175 24.7763C61.5923 24.7763 61.1901 24.8796 60.8224 25.0861C60.4547 25.2925 60.1559 25.6022 59.9261 26.0037C59.6963 26.4052 59.5813 26.8869 59.5813 27.4375C59.5813 27.9881 59.6963 28.4813 59.9261 28.8943C60.1559 29.3187 60.4547 29.6284 60.8339 29.8463C61.2131 30.0643 61.6038 30.179 62.0289 30.179C62.4541 30.179 62.8563 30.0758 63.224 29.8578C63.5917 29.6399 63.8905 29.3302 64.1203 28.9172C64.3501 28.5043 64.465 28.0225 64.465 27.4605C64.465 26.8984 64.3501 26.4281 64.1203 26.0152" fill="white"/>
<path d="M7.36598 32.7025C7.36598 32.7025 7.4694 32.8172 7.52686 32.8746C14.9616 40.2961 27.0157 40.2961 34.4504 32.8746C41.8852 25.4531 41.8852 13.4205 34.4504 5.999C27.0272 -1.411 14.9846 -1.42247 7.54984 5.97606L20.845 19.2475L7.35449 32.714L7.36598 32.7025Z" fill="#FFBF00"/>
<path d="M36.2084 8.69477C38.2193 9.71566 39.7706 11.1839 40.8737 13.0995C41.9654 15.0151 42.5169 17.2404 42.5169 19.7868C42.5169 22.3333 41.9654 24.5471 40.8737 26.4283C39.7821 28.3095 38.2193 29.7433 36.2084 30.7412C34.1974 31.7392 31.8532 32.2439 29.1758 32.2439H20.9712V7.15771H29.1758C31.8532 7.15771 34.1974 7.67389 36.2084 8.69477ZM35.9326 26.4971C37.4954 24.9142 38.2767 22.6774 38.2767 19.7868C38.2767 16.8962 37.4954 14.6021 35.9326 12.9733C34.3698 11.333 32.1175 10.5186 29.1758 10.5186H25.0965V28.883H29.1758C32.1175 28.883 34.3698 28.0915 35.9326 26.4971Z" fill="white"/>
<path d="M72.1524 31.7391C71.8307 31.7391 71.5319 31.5556 71.4055 31.2344L68.6476 24.4782C68.4753 24.0653 68.6706 23.595 69.0843 23.4229C69.498 23.2509 69.9691 23.4459 70.1415 23.8588L72.8993 30.615C73.0717 31.0279 72.8763 31.4982 72.4627 31.6703C72.3592 31.7161 72.2558 31.7276 72.1524 31.7276" fill="#FFBF00"/>
<path d="M81.4531 16.3988L79.8328 12.4759C79.672 12.0859 79.2123 11.8909 78.8216 12.0629L74.9032 13.6917C74.5239 13.8523 74.2941 14.2538 74.4205 14.6438C74.5584 15.0911 75.0411 15.3091 75.4547 15.137L77.684 14.2079L71.5248 30.4159C71.4673 30.542 71.3179 30.6109 71.1915 30.5535L70.9272 30.4503L71.7086 32.0676C72.0304 31.9873 72.1913 31.8956 72.3751 31.735C72.6854 31.4711 72.9152 31.1156 73.0531 30.737L79.1089 14.7929L80.0397 17.0297C80.212 17.4541 80.7176 17.6376 81.1198 17.4082C81.4761 17.2132 81.6024 16.7659 81.4531 16.3873" fill="#FFBF00"/>
<path d="M2.47034 22.5627H0.505371V24.5242H2.47034V22.5627Z" fill="white"/>
<path d="M6.57287 17.6992H3.42432V20.8422H6.57287V17.6992Z" fill="white"/>
<path d="M7.77962 25.1091V28.7223H3.80371V24.7535H7.38892L9.79056 22.4365V17.3894H15.1914V22.7691H10.2042L7.77962 25.1091Z" fill="white"/>
<path d="M62.3248 23.4821C62.3248 24.4341 61.5434 25.2141 60.5896 25.2141C59.6359 25.2141 58.8545 24.4341 58.8545 23.4821C58.8545 22.53 59.6359 21.75 60.5896 21.75C61.5434 21.75 62.3248 22.53 62.3248 23.4821Z" fill="#FFBF00"/>
</svg>
